<?xml version="1.0" standalone="no"?>
<!DOCTYPE svg PUBLIC "-//W3C//DTD SVG 20010904//EN"
 "http://www.w3.org/TR/2001/REC-SVG-20010904/DTD/svg10.dtd">
<svg version="1.0" xmlns="http://www.w3.org/2000/svg"
 width="512.000000pt" height="512.000000pt" viewBox="0 0 512.000000 512.000000"
 preserveAspectRatio="xMidYMid meet">
<metadata>
Created by potrace 1.14, written by Peter Selinger 2001-2017
</metadata>
<g transform="translate(0.000000,512.000000) scale(0.100000,-0.100000)"
fill="#000000" stroke="none">
<path d="M2520 4719 c-131 -25 -253 -92 -310 -171 -27 -37 -110 -267 -110
-304 0 -16 -8 -18 -180 -39 -281 -34 -461 -79 -670 -167 -346 -146 -849 -453
-1035 -632 -58 -56 -76 -81 -85 -115 -22 -83 21 -184 102 -239 75 -51 124 -65
243 -69 176 -8 332 30 717 173 318 118 596 184 717 172 31 -3 35 -7 51 -60 47
-153 173 -268 340 -311 l55 -15 0 -74 c-1 -60 -6 -85 -28 -131 -75 -153 -293
-261 -479 -237 -163 20 -220 38 -463 148 -358 160 -516 205 -730 205 -105 0
-143 -5 -197 -22 -142 -46 -212 -123 -230 -253 -19 -129 21 -202 151 -277 69
-40 89 -49 316 -132 272 -100 471 -215 611 -354 99 -98 144 -162 269 -380 126
-220 187 -305 315 -438 209 -218 439 -372 719 -481 184 -73 451 -126 627 -126
253 0 542 68 779 185 519 255 836 703 944 1337 59 343 42 807 -39 1107 -50
182 -165 417 -292 596 -70 99 -234 269 -348 362 -326 263 -790 510 -1268 674
-217 74 -359 94 -492 68z"/>
</g>
</svg>
